Coordinates
version=1
nRows=9
nColumns=60
inDegrees=yes

Units are S.I. units (second, meters, Newtons, ...)
If the header above contains a line with 'inDegrees', this indicates whether rotational values are in degrees (yes) or radians (no).

endheader
time	pelvis_tilt	pelvis_list	pelvis_rotation	pelvis_tx	pelvis_ty	pelvis_tz	hip_flexion_r	hip_adduction_r	hip_rotation_r	knee_angle_r_beta	knee_angle_r	ankle_angle_r	subtalar_angle_r	mtp_angle_r	hip_flexion_l	hip_adduction_l	hip_rotation_l	knee_angle_l_beta	knee_angle_l	ankle_angle_l	subtalar_angle_l	mtp_angle_l	L5_S1_Flex_Ext	L5_S1_Lat_Bending	L5_S1_axial_rotation	L4_L5_Flex_Ext	L4_L5_Lat_Bending	L4_L5_axial_rotation	L3_L4_Flex_Ext	L3_L4_Lat_Bending	L3_L4_axial_rotation	L2_L3_Flex_Ext	L2_L3_Lat_Bending	L2_L3_axial_rotation	L1_L2_Flex_Ext	L1_L2_Lat_Bending	L1_L2_axial_rotation	L1_T12_Flex_Ext	L1_T12_Lat_Bending	L1_T12_axial_rotation	Abs_r3	Abs_r2	Abs_r1	Abs_t1	Abs_t2	arm_flex_r	arm_add_r	arm_rot_r	elbow_flex_r	pro_sup_r	wrist_flex_r	wrist_dev_r	arm_flex_l	arm_add_l	arm_rot_l	elbow_flex_l	pro_sup_l	wrist_flex_l	wrist_dev_l
      3.23000000	      0.79654509	     11.01313198	     91.59586595	      0.40959819	      0.93928450	      0.28901258	      0.36446154	     -3.69360806	      0.77887336	      0.32076231	    -18.37832661	     10.48072473	      0.00000000	      0.00000000	      1.34011387	     -7.26924681	     -0.91975876	      0.32190614	    -18.44386302	     11.00936154	      0.00000000	      0.00000000	     -7.37026121	      0.06416239	     -0.36508035	    -13.68731210	      0.08533598	     -0.38789787	    -12.10860214	      0.15600444	     -0.38789787	     -8.42347154	      0.15600444	     -0.31944530	     -6.84402456	      0.13083995	     -0.29662778	     -4.21136726	      0.09938755	     -0.27381026	    -52.64503881	      0.72581781	     -2.03046737	      0.00000000	      0.00000000	     22.13222470	    -28.64602233	     14.92304838	     82.08831733	     57.32842163	      6.81184519	     30.22981866	     21.43367396	    -26.97103176	     10.95879981	     76.89960681	     64.68546312	     24.20904151	      8.06646484
      3.24000000	      0.78690220	     11.12128495	     91.55430460	      0.40941670	      0.93962760	      0.28687584	     -0.04147943	     -3.73232054	      0.63679715	      0.31573339	    -18.09019093	     10.56698842	      0.00000000	      0.00000000	      0.93934720	     -7.25619411	     -1.08149569	      0.31784830	    -18.21136629	     11.11018107	      0.00000000	      0.00000000	     -7.24823598	      0.06137594	     -0.35971881	    -13.46069903	      0.08163001	     -0.38220124	    -11.90812689	      0.14922947	     -0.38220124	     -8.28400890	      0.14922947	     -0.31475396	     -6.73071193	      0.12515782	     -0.29227153	     -4.14164204	      0.09507134	     -0.26978911	    -51.77342476	      0.69429695	     -2.00064811	      0.00000000	      0.00000000	     21.67154578	    -29.02806371	     14.84186435	     82.81380067	     57.34575245	      6.79016009	     30.23919851	     20.83830726	    -27.02298206	     10.88941309	     77.62918309	     64.64391191	     24.20733321	      8.07930926
      3.25000000	      0.80604719	     11.49992018	     91.51117470	      0.40928154	      0.94036267	      0.28490703	     -0.76406487	     -3.70924522	      0.65724785	      0.30992216	    -17.75723182	     10.55319572	      0.00000000	      0.00000000	      0.24574141	     -7.27930664	     -1.16152035	      0.31374372	    -17.97619072	     11.16356356	      0.00000000	      0.00000000	     -7.20463117	      0.05958184	     -0.35996615	    -13.37972054	      0.07924385	     -0.38246403	    -11.83648854	      0.14486728	     -0.38246403	     -8.23417296	      0.14486728	     -0.31497038	     -6.69022050	      0.12149929	     -0.29247249	     -4.11672625	      0.09229227	     -0.26997461	    -51.46195995	      0.67400169	     -2.00202371	      0.00000000	      0.00000000	     21.16802896	    -29.39993523	     14.37224266	     84.07782141	     57.33335951	      6.64384125	     30.38718030	     20.12912446	    -27.08734118	     10.36990059	     78.97030476	     64.43721566	     23.98976629	      8.37242262
      3.26000000	      0.80276131	     11.67235048	     91.47966424	      0.40913098	      0.94076121	      0.28298596	     -1.13537583	     -3.72300554	      0.57868869	      0.30851958	    -17.67686971	     10.57604045	      0.00000000	      0.00000000	     -0.12328097	     -7.26720430	     -1.23252706	      0.31295130	    -17.93078879	     11.19338563	      0.00000000	      0.00000000	     -7.09220146	      0.05663217	     -0.35874490	    -13.17092733	      0.07532079	     -0.38116646	    -11.65177778	      0.13769547	     -0.38116646	     -8.10567705	      0.13769547	     -0.31390179	     -6.58581827	      0.11548433	     -0.29148023	     -4.05248391	      0.08772324	     -0.26905868	    -50.65888580	      0.64063447	     -1.99523153	      0.00000000	      0.00000000	     20.98299737	    -29.65307458	     14.33185418	     84.37949989	     57.33172814	      6.63690588	     30.41857937	     19.78552702	    -27.12682519	     10.41304301	     79.36887226	     64.41829991	     23.98068127	      8.41046069
      3.27000000	      0.82575334	     11.95938369	     91.44874579	      0.40903044	      0.94131103	      0.28130145	     -1.80266075	     -3.70671246	      0.57203364	      0.29990620	    -17.18335962	     10.58761481	      0.00000000	      0.00000000	     -0.73329071	     -7.29976857	     -1.33177462	      0.30691082	    -17.58469487	     11.30077763	      0.00000000	      0.00000000	     -7.06025201	      0.05435485	     -0.35794212	    -13.11159401	      0.07229195	     -0.38031350	    -11.59928803	      0.13215838	     -0.38031350	     -8.06916202	      0.13215838	     -0.31319936	     -6.55615002	      0.11084041	     -0.29082797	     -4.03422800	      0.08419566	     -0.26845659	    -50.43067408	      0.61487294	     -1.99076670	      0.00000000	      0.00000000	     20.61094257	    -30.09685289	     13.89694727	     85.79848697	     57.23186665	      6.54928153	     30.70933596	     19.15073126	    -27.35789057	      9.96611954	     81.09952330	     64.15121558	     23.65857886	      8.84341533
      3.28000000	      0.83781538	     12.06670138	     91.42558781	      0.40886719	      0.94158651	      0.27960863	     -2.16398860	     -3.72257179	      0.38613364	      0.29525497	    -16.91686378	     10.63513920	      0.00000000	      0.00000000	     -1.07439040	     -7.31784509	     -1.48872017	      0.30341029	    -17.38412894	     11.37874467	      0.00000000	      0.00000000	     -6.96570240	      0.05320533	     -0.35622279	    -12.93600593	      0.07076309	     -0.37848671	    -11.44395247	      0.12936344	     -0.37848671	     -7.96110127	      0.12936344	     -0.31169494	     -6.46835125	      0.10849631	     -0.28943101	     -3.98020235	      0.08241505	     -0.26716709	    -49.75531568	      0.60186932	     -1.98120427	      0.00000000	      0.00000000	     20.51991494	    -30.40065950	     13.78642833	     86.30565184	     57.17932298	      6.51726258	     30.86611155	     18.88766739	    -27.49031936	      9.96416692	     81.89183736	     64.03787552	     23.50787853	      9.06412680
      3.29000000	      0.85432726	     12.25283039	     91.42925294	      0.40867123	      0.94195430	      0.27800460	     -2.61729226	     -3.71938590	      0.30293357	      0.29039596	    -16.63846318	     10.63124935	      0.00000000	      0.00000000	     -1.48742271	     -7.32936568	     -1.53487967	      0.30034998	    -17.20878647	     11.44199878	      0.00000000	      0.00000000	     -6.89944081	      0.05343173	     -0.35696428	    -12.81295152	      0.07106420	     -0.37927455	    -11.33509130	      0.12991390	     -0.37927455	     -7.88537090	      0.12991390	     -0.31234375	     -6.40682073	      0.10895798	     -0.29003348	     -3.94234048	      0.08276574	     -0.26772321	    -49.28201575	      0.60443037	     -1.98532825	      0.00000000	      0.00000000	     20.44183924	    -30.72170974	     13.56381662	     86.99515649	     57.07679392	      6.47659914	     31.09749733	     18.58322375	    -27.66933134	      9.89958219	     82.97810701	     63.85468618	     23.25711070	      9.38896194
      3.30000000	      0.83569761	     12.63973370	     91.47069889	      0.40846006	      0.94259296	      0.27656103	     -3.28436706	     -3.73811988	      0.20653616	      0.28605272	    -16.38961374	     10.56965932	      0.00000000	      0.00000000	     -2.09323457	     -7.31817093	     -1.58965501	      0.29742740	    -17.04133495	     11.45650062	      0.00000000	      0.00000000	     -6.87752635	      0.04745068	     -0.37686813	    -12.77225418	      0.06310940	     -0.40042239	    -11.29908804	      0.11537158	     -0.40042239	     -7.86032486	      0.11537158	     -0.32975962	     -6.38647097	      0.09676142	     -0.30620536	     -3.92981855	      0.07350110	     -0.28265110	    -49.12548294	      0.53677157	     -2.09602751	      0.00000000	      0.00000000	     20.67190672	    -30.88379071	     13.32620455	     87.66575462	     56.35538287	      5.40424915	     33.83037379	     18.46879378	    -27.84668483	      9.95086352	     84.76842335	     61.79141850	     16.77874404	     15.03141529
      3.31000000	      0.83766112	     12.68874494	     91.50121731	      0.40823505	      0.94274220	      0.27515171	     -3.51977710	     -3.75091913	      0.08749561	      0.28330296	    -16.23206415	     10.59407312	      0.00000000	      0.00000000	     -2.29245445	     -7.31859018	     -1.64590779	      0.29558261	    -16.93563626	     11.50173850	      0.00000000	      0.00000000	     -6.78897481	      0.04750116	     -0.37314508	    -12.60780513	      0.06317655	     -0.39646664	    -11.15360672	      0.11549433	     -0.39646664	     -7.75911932	      0.11549433	     -0.32650194	     -6.30424201	      0.09686437	     -0.30318037	     -3.87922021	      0.07357930	     -0.27985881	    -48.49296820	      0.53734265	     -2.07532097	      0.00000000	      0.00000000	     20.77362945	    -31.16129567	     13.20718263	     87.94001644	     56.32658332	      5.40664614	     33.84968421	     18.47487939	    -27.94117318	     10.03528773	     85.46713239	     61.77282984	     16.76847014	     15.04356880
